<?xml version="1.0" encoding="utf-8" standalone="no"?>
<!DOCTYPE svg PUBLIC "-//W3C//DTD SVG 1.1//EN"
  "http://www.w3.org/Graphics/SVG/1.1/DTD/svg11.dtd">
<svg xmlns:xlink="http://www.w3.org/1999/xlink" width="415.645pt" height="321.965125pt" viewBox="0 0 415.645 321.965125" xmlns="http://www.w3.org/2000/svg" version="1.1">
 <metadata>
  <rdf:RDF xmlns:dc="http://purl.org/dc/elements/1.1/" xmlns:cc="http://creativecommons.org/ns#" xmlns:rdf="http://www.w3.org/1999/02/22-rdf-syntax-ns#">
   <cc:Work>
    <dc:type rdf:resource="http://purl.org/dc/dcmitype/StillImage"/>
    <dc:date>2022-09-19T04:01:57.786010</dc:date>
    <dc:format>image/svg+xml</dc:format>
    <dc:creator>
     <cc:Agent>
      <dc:title>Matplotlib v3.5.2, https://matplotlib.org/</dc:title>
     </cc:Agent>
    </dc:creator>
   </cc:Work>
  </rdf:RDF>
 </metadata>
 <defs>
  <style type="text/css">*{stroke-linejoin: round; stroke-linecap: butt}</style>
 </defs>
 <g id="figure_1">
  <g id="patch_1">
   <path d="M 0 321.965125 
L 415.645 321.965125 
L 415.645 0 
L 0 0 
z
" style="fill: #ffffff"/>
  </g>
  <g id="axes_1">
   <g id="patch_2">
    <path d="M 51.325 287.515125 
L 408.445 287.515125 
L 408.445 21.403125 
L 51.325 21.403125 
z
" style="fill: #ffffff"/>
   </g>
   <g id="matplotlib.axis_1">
    <g id="xtick_1">
     <g id="line2d_1">
      <path d="M 118.818971 287.515125 
L 118.818971 21.403125 
" clip-path="url(#p962f445661)" style="fill: none; stroke: #b0b0b0; stroke-width: 0.8; stroke-linecap: square"/>
     </g>
     <g id="line2d_2">
      <defs>
       <path id="m360d6a4b82" d="M 0 0 
L 0 3.5 
" style="stroke: #000000; stroke-width: 0.8"/>
      </defs>
      <g>
       <use xlink:href="#m360d6a4b82" x="118.818971" y="287.515125" style="stroke: #000000; stroke-width: 0.8"/>
      </g>
     </g>
     <g id="text_1">
      <!-- 0.2 -->
      <g transform="translate(111.318971 301.351062)scale(0.1 -0.1)">
       <defs>
        <path id="SimHei-30" d="M 2975 2250 
Q 2975 1350 2650 700 
Q 2325 50 1600 50 
Q 875 50 537 700 
Q 200 1350 200 2250 
Q 200 3150 537 3787 
Q 875 4425 1600 4425 
Q 2325 4425 2650 3787 
Q 2975 3150 2975 2250 
z
M 2375 2250 
Q 2375 3050 2187 3500 
Q 2000 3950 1600 3950 
Q 1200 3950 1000 3500 
Q 800 3050 800 2250 
Q 800 1450 1000 987 
Q 1200 525 1600 525 
Q 2000 525 2187 987 
Q 2375 1450 2375 2250 
z
" transform="scale(0.015625)"/>
        <path id="SimHei-2e" d="M 1100 100 
L 525 100 
L 525 650 
L 1100 650 
L 1100 100 
z
" transform="scale(0.015625)"/>
        <path id="SimHei-32" d="M 2850 100 
L 300 100 
L 300 500 
Q 450 900 712 1237 
Q 975 1575 1475 2000 
Q 1850 2325 2012 2600 
Q 2175 2875 2175 3200 
Q 2175 3525 2037 3737 
Q 1900 3950 1600 3950 
Q 1350 3950 1162 3725 
Q 975 3500 975 2925 
L 400 2925 
Q 425 3650 737 4037 
Q 1050 4425 1625 4425 
Q 2175 4425 2475 4087 
Q 2775 3750 2775 3175 
Q 2775 2700 2500 2350 
Q 2225 2000 1825 1650 
Q 1375 1250 1200 1050 
Q 1025 850 875 575 
L 2850 575 
L 2850 100 
z
" transform="scale(0.015625)"/>
       </defs>
       <use xlink:href="#SimHei-30"/>
       <use xlink:href="#SimHei-2e" x="50"/>
       <use xlink:href="#SimHei-32" x="100"/>
      </g>
     </g>
    </g>
    <g id="xtick_2">
     <g id="line2d_3">
      <path d="M 187.167297 287.515125 
L 187.167297 21.403125 
" clip-path="url(#p962f445661)" style="fill: none; stroke: #b0b0b0; stroke-width: 0.8; stroke-linecap: square"/>
     </g>
     <g id="line2d_4">
      <g>
       <use xlink:href="#m360d6a4b82" x="187.167297" y="287.515125" style="stroke: #000000; stroke-width: 0.8"/>
      </g>
     </g>
     <g id="text_2">
      <!-- 0.4 -->
      <g transform="translate(179.667297 301.351062)scale(0.1 -0.1)">
       <defs>
        <path id="SimHei-34" d="M 2975 1200 
L 2450 1200 
L 2450 100 
L 1875 100 
L 1875 1200 
L 200 1200 
L 200 1675 
L 1875 4425 
L 2450 4425 
L 2450 1675 
L 2975 1675 
L 2975 1200 
z
M 1875 1675 
L 1875 3525 
L 750 1675 
L 1875 1675 
z
" transform="scale(0.015625)"/>
       </defs>
       <use xlink:href="#SimHei-30"/>
       <use xlink:href="#SimHei-2e" x="50"/>
       <use xlink:href="#SimHei-34" x="100"/>
      </g>
     </g>
    </g>
    <g id="xtick_3">
     <g id="line2d_5">
      <path d="M 255.515622 287.515125 
L 255.515622 21.403125 
" clip-path="url(#p962f445661)" style="fill: none; stroke: #b0b0b0; stroke-width: 0.8; stroke-linecap: square"/>
     </g>
     <g id="line2d_6">
      <g>
       <use xlink:href="#m360d6a4b82" x="255.515622" y="287.515125" style="stroke: #000000; stroke-width: 0.8"/>
      </g>
     </g>
     <g id="text_3">
      <!-- 0.6 -->
      <g transform="translate(248.015622 301.351062)scale(0.1 -0.1)">
       <defs>
        <path id="SimHei-36" d="M 2850 1550 
Q 2850 850 2550 450 
Q 2250 50 1650 50 
Q 1050 50 700 550 
Q 350 1050 350 2175 
Q 350 3200 712 3812 
Q 1075 4425 1750 4425 
Q 2225 4425 2512 4075 
Q 2800 3725 2800 3300 
L 2225 3300 
Q 2225 3550 2087 3750 
Q 1950 3950 1725 3950 
Q 1350 3950 1150 3562 
Q 950 3175 925 2375 
Q 1100 2700 1300 2825 
Q 1500 2950 1775 2950 
Q 2250 2950 2550 2575 
Q 2850 2200 2850 1550 
z
M 2250 1550 
Q 2250 2000 2100 2250 
Q 1950 2500 1675 2500 
Q 1350 2500 1162 2250 
Q 975 2000 975 1650 
Q 975 1100 1162 800 
Q 1350 500 1675 500 
Q 1900 500 2075 725 
Q 2250 950 2250 1550 
z
" transform="scale(0.015625)"/>
       </defs>
       <use xlink:href="#SimHei-30"/>
       <use xlink:href="#SimHei-2e" x="50"/>
       <use xlink:href="#SimHei-36" x="100"/>
      </g>
     </g>
    </g>
    <g id="xtick_4">
     <g id="line2d_7">
      <path d="M 323.863947 287.515125 
L 323.863947 21.403125 
" clip-path="url(#p962f445661)" style="fill: none; stroke: #b0b0b0; stroke-width: 0.8; stroke-linecap: square"/>
     </g>
     <g id="line2d_8">
      <g>
       <use xlink:href="#m360d6a4b82" x="323.863947" y="287.515125" style="stroke: #000000; stroke-width: 0.8"/>
      </g>
     </g>
     <g id="text_4">
      <!-- 0.8 -->
      <g transform="translate(316.363947 301.351062)scale(0.1 -0.1)">
       <defs>
        <path id="SimHei-38" d="M 2875 1325 
Q 2875 700 2525 375 
Q 2175 50 1575 50 
Q 975 50 625 375 
Q 275 700 275 1325 
Q 275 1650 475 1912 
Q 675 2175 1025 2300 
Q 725 2425 562 2650 
Q 400 2875 400 3225 
Q 400 3775 750 4100 
Q 1100 4425 1575 4425 
Q 2050 4425 2400 4100 
Q 2750 3775 2750 3225 
Q 2750 2875 2587 2650 
Q 2425 2425 2125 2300 
Q 2475 2175 2675 1912 
Q 2875 1650 2875 1325 
z
M 2200 3225 
Q 2200 3625 2025 3800 
Q 1850 3975 1575 3975 
Q 1300 3975 1125 3800 
Q 950 3625 950 3225 
Q 950 2825 1137 2662 
Q 1325 2500 1575 2500 
Q 1825 2500 2012 2662 
Q 2200 2825 2200 3225 
z
M 2300 1325 
Q 2300 1675 2112 1875 
Q 1925 2075 1575 2075 
Q 1225 2075 1037 1875 
Q 850 1675 850 1325 
Q 850 925 1050 712 
Q 1250 500 1575 500 
Q 1900 500 2100 712 
Q 2300 925 2300 1325 
z
" transform="scale(0.015625)"/>
       </defs>
       <use xlink:href="#SimHei-30"/>
       <use xlink:href="#SimHei-2e" x="50"/>
       <use xlink:href="#SimHei-38" x="100"/>
      </g>
     </g>
    </g>
    <g id="xtick_5">
     <g id="line2d_9">
      <path d="M 392.212273 287.515125 
L 392.212273 21.403125 
" clip-path="url(#p962f445661)" style="fill: none; stroke: #b0b0b0; stroke-width: 0.8; stroke-linecap: square"/>
     </g>
     <g id="line2d_10">
      <g>
       <use xlink:href="#m360d6a4b82" x="392.212273" y="287.515125" style="stroke: #000000; stroke-width: 0.8"/>
      </g>
     </g>
     <g id="text_5">
      <!-- 1.0 -->
      <g transform="translate(384.712273 301.351062)scale(0.1 -0.1)">
       <defs>
        <path id="SimHei-31" d="M 1950 100 
L 1375 100 
L 1375 3425 
L 625 3425 
L 625 3725 
Q 1075 3725 1325 3900 
Q 1575 4075 1650 4425 
L 1950 4425 
L 1950 100 
z
" transform="scale(0.015625)"/>
       </defs>
       <use xlink:href="#SimHei-31"/>
       <use xlink:href="#SimHei-2e" x="50"/>
       <use xlink:href="#SimHei-30" x="100"/>
      </g>
     </g>
    </g>
    <g id="text_6">
     <!-- F1 -->
     <g transform="translate(224.885 313.476062)scale(0.1 -0.1)">
      <defs>
       <path id="SimHei-46" d="M 2950 3900 
L 900 3900 
L 900 2500 
L 2450 2500 
L 2450 2025 
L 900 2025 
L 900 100 
L 325 100 
L 325 4375 
L 2950 4375 
L 2950 3900 
z
" transform="scale(0.015625)"/>
      </defs>
      <use xlink:href="#SimHei-46"/>
      <use xlink:href="#SimHei-31" x="50"/>
     </g>
    </g>
   </g>
   <g id="matplotlib.axis_2">
    <g id="ytick_1">
     <g id="line2d_11">
      <path d="M 51.325 270.338238 
L 408.445 270.338238 
" clip-path="url(#p962f445661)" style="fill: none; stroke: #b0b0b0; stroke-width: 0.8; stroke-linecap: square"/>
     </g>
     <g id="line2d_12">
      <defs>
       <path id="mc6e748910b" d="M 0 0 
L -3.5 0 
" style="stroke: #000000; stroke-width: 0.8"/>
      </defs>
      <g>
       <use xlink:href="#mc6e748910b" x="51.325" y="270.338238" style="stroke: #000000; stroke-width: 0.8"/>
      </g>
     </g>
     <g id="text_7">
      <!-- 0.062 -->
      <g transform="translate(19.325 273.756206)scale(0.1 -0.1)">
       <use xlink:href="#SimHei-30"/>
       <use xlink:href="#SimHei-2e" x="50"/>
       <use xlink:href="#SimHei-30" x="100"/>
       <use xlink:href="#SimHei-36" x="150"/>
       <use xlink:href="#SimHei-32" x="200"/>
      </g>
     </g>
    </g>
    <g id="ytick_2">
     <g id="line2d_13">
      <path d="M 51.325 237.954738 
L 408.445 237.954738 
" clip-path="url(#p962f445661)" style="fill: none; stroke: #b0b0b0; stroke-width: 0.8; stroke-linecap: square"/>
     </g>
     <g id="line2d_14">
      <g>
       <use xlink:href="#mc6e748910b" x="51.325" y="237.954738" style="stroke: #000000; stroke-width: 0.8"/>
      </g>
     </g>
     <g id="text_8">
      <!-- 0.064 -->
      <g transform="translate(19.325 241.372706)scale(0.1 -0.1)">
       <use xlink:href="#SimHei-30"/>
       <use xlink:href="#SimHei-2e" x="50"/>
       <use xlink:href="#SimHei-30" x="100"/>
       <use xlink:href="#SimHei-36" x="150"/>
       <use xlink:href="#SimHei-34" x="200"/>
      </g>
     </g>
    </g>
    <g id="ytick_3">
     <g id="line2d_15">
      <path d="M 51.325 205.571237 
L 408.445 205.571237 
" clip-path="url(#p962f445661)" style="fill: none; stroke: #b0b0b0; stroke-width: 0.8; stroke-linecap: square"/>
     </g>
     <g id="line2d_16">
      <g>
       <use xlink:href="#mc6e748910b" x="51.325" y="205.571237" style="stroke: #000000; stroke-width: 0.8"/>
      </g>
     </g>
     <g id="text_9">
      <!-- 0.066 -->
      <g transform="translate(19.325 208.989206)scale(0.1 -0.1)">
       <use xlink:href="#SimHei-30"/>
       <use xlink:href="#SimHei-2e" x="50"/>
       <use xlink:href="#SimHei-30" x="100"/>
       <use xlink:href="#SimHei-36" x="150"/>
       <use xlink:href="#SimHei-36" x="200"/>
      </g>
     </g>
    </g>
    <g id="ytick_4">
     <g id="line2d_17">
      <path d="M 51.325 173.187737 
L 408.445 173.187737 
" clip-path="url(#p962f445661)" style="fill: none; stroke: #b0b0b0; stroke-width: 0.8; stroke-linecap: square"/>
     </g>
     <g id="line2d_18">
      <g>
       <use xlink:href="#mc6e748910b" x="51.325" y="173.187737" style="stroke: #000000; stroke-width: 0.8"/>
      </g>
     </g>
     <g id="text_10">
      <!-- 0.068 -->
      <g transform="translate(19.325 176.605706)scale(0.1 -0.1)">
       <use xlink:href="#SimHei-30"/>
       <use xlink:href="#SimHei-2e" x="50"/>
       <use xlink:href="#SimHei-30" x="100"/>
       <use xlink:href="#SimHei-36" x="150"/>
       <use xlink:href="#SimHei-38" x="200"/>
      </g>
     </g>
    </g>
    <g id="ytick_5">
     <g id="line2d_19">
      <path d="M 51.325 140.804237 
L 408.445 140.804237 
" clip-path="url(#p962f445661)" style="fill: none; stroke: #b0b0b0; stroke-width: 0.8; stroke-linecap: square"/>
     </g>
     <g id="line2d_20">
      <g>
       <use xlink:href="#mc6e748910b" x="51.325" y="140.804237" style="stroke: #000000; stroke-width: 0.8"/>
      </g>
     </g>
     <g id="text_11">
      <!-- 0.070 -->
      <g transform="translate(19.325 144.222206)scale(0.1 -0.1)">
       <defs>
        <path id="SimHei-37" d="M 2775 3850 
L 1600 100 
L 1025 100 
L 2225 3900 
L 400 3900 
L 400 4375 
L 2775 4375 
L 2775 3850 
z
" transform="scale(0.015625)"/>
       </defs>
       <use xlink:href="#SimHei-30"/>
       <use xlink:href="#SimHei-2e" x="50"/>
       <use xlink:href="#SimHei-30" x="100"/>
       <use xlink:href="#SimHei-37" x="150"/>
       <use xlink:href="#SimHei-30" x="200"/>
      </g>
     </g>
    </g>
    <g id="ytick_6">
     <g id="line2d_21">
      <path d="M 51.325 108.420737 
L 408.445 108.420737 
" clip-path="url(#p962f445661)" style="fill: none; stroke: #b0b0b0; stroke-width: 0.8; stroke-linecap: square"/>
     </g>
     <g id="line2d_22">
      <g>
       <use xlink:href="#mc6e748910b" x="51.325" y="108.420737" style="stroke: #000000; stroke-width: 0.8"/>
      </g>
     </g>
     <g id="text_12">
      <!-- 0.072 -->
      <g transform="translate(19.325 111.838706)scale(0.1 -0.1)">
       <use xlink:href="#SimHei-30"/>
       <use xlink:href="#SimHei-2e" x="50"/>
       <use xlink:href="#SimHei-30" x="100"/>
       <use xlink:href="#SimHei-37" x="150"/>
       <use xlink:href="#SimHei-32" x="200"/>
      </g>
     </g>
    </g>
    <g id="ytick_7">
     <g id="line2d_23">
      <path d="M 51.325 76.037237 
L 408.445 76.037237 
" clip-path="url(#p962f445661)" style="fill: none; stroke: #b0b0b0; stroke-width: 0.8; stroke-linecap: square"/>
     </g>
     <g id="line2d_24">
      <g>
       <use xlink:href="#mc6e748910b" x="51.325" y="76.037237" style="stroke: #000000; stroke-width: 0.8"/>
      </g>
     </g>
     <g id="text_13">
      <!-- 0.074 -->
      <g transform="translate(19.325 79.455206)scale(0.1 -0.1)">
       <use xlink:href="#SimHei-30"/>
       <use xlink:href="#SimHei-2e" x="50"/>
       <use xlink:href="#SimHei-30" x="100"/>
       <use xlink:href="#SimHei-37" x="150"/>
       <use xlink:href="#SimHei-34" x="200"/>
      </g>
     </g>
    </g>
    <g id="ytick_8">
     <g id="line2d_25">
      <path d="M 51.325 43.653737 
L 408.445 43.653737 
" clip-path="url(#p962f445661)" style="fill: none; stroke: #b0b0b0; stroke-width: 0.8; stroke-linecap: square"/>
     </g>
     <g id="line2d_26">
      <g>
       <use xlink:href="#mc6e748910b" x="51.325" y="43.653737" style="stroke: #000000; stroke-width: 0.8"/>
      </g>
     </g>
     <g id="text_14">
      <!-- 0.076 -->
      <g transform="translate(19.325 47.071706)scale(0.1 -0.1)">
       <use xlink:href="#SimHei-30"/>
       <use xlink:href="#SimHei-2e" x="50"/>
       <use xlink:href="#SimHei-30" x="100"/>
       <use xlink:href="#SimHei-37" x="150"/>
       <use xlink:href="#SimHei-36" x="200"/>
      </g>
     </g>
    </g>
    <g id="text_15">
     <!-- F2 -->
     <g transform="translate(14.035938 159.459125)rotate(-90)scale(0.1 -0.1)">
      <use xlink:href="#SimHei-46"/>
      <use xlink:href="#SimHei-32" x="50"/>
     </g>
    </g>
   </g>
   <g id="line2d_27">
    <defs>
     <path id="mce5e0d3ca7" d="M 0 2.5 
C 0.663008 2.5 1.29895 2.236584 1.767767 1.767767 
C 2.236584 1.29895 2.5 0.663008 2.5 0 
C 2.5 -0.663008 2.236584 -1.29895 1.767767 -1.767767 
C 1.29895 -2.236584 0.663008 -2.5 0 -2.5 
C -0.663008 -2.5 -1.29895 -2.236584 -1.767767 -1.767767 
C -2.236584 -1.29895 -2.5 -0.663008 -2.5 0 
C -2.5 0.663008 -2.236584 1.29895 -1.767767 1.767767 
C -1.29895 2.236584 -0.663008 2.5 0 2.5 
z
" style="stroke: #ff0000"/>
    </defs>
    <g clip-path="url(#p962f445661)">
     <use xlink:href="#mce5e0d3ca7" x="373.416483" y="58.772888" style="fill: #ff0000; stroke: #ff0000"/>
     <use xlink:href="#mce5e0d3ca7" x="376.8339" y="59.940926" style="fill: #ff0000; stroke: #ff0000"/>
     <use xlink:href="#mce5e0d3ca7" x="72.683852" y="34.264471" style="fill: #ff0000; stroke: #ff0000"/>
     <use xlink:href="#mce5e0d3ca7" x="221.341459" y="48.082527" style="fill: #ff0000; stroke: #ff0000"/>
     <use xlink:href="#mce5e0d3ca7" x="390.503565" y="161.654117" style="fill: #ff0000; stroke: #ff0000"/>
     <use xlink:href="#mce5e0d3ca7" x="392.212273" y="275.419125" style="fill: #ff0000; stroke: #ff0000"/>
     <use xlink:href="#mce5e0d3ca7" x="190.584713" y="43.69128" style="fill: #ff0000; stroke: #ff0000"/>
     <use xlink:href="#mce5e0d3ca7" x="368.290359" y="57.844531" style="fill: #ff0000; stroke: #ff0000"/>
     <use xlink:href="#mce5e0d3ca7" x="202.54567" y="46.764796" style="fill: #ff0000; stroke: #ff0000"/>
     <use xlink:href="#mce5e0d3ca7" x="82.9361" y="43.343705" style="fill: #ff0000; stroke: #ff0000"/>
     <use xlink:href="#mce5e0d3ca7" x="356.329402" y="57.378764" style="fill: #ff0000; stroke: #ff0000"/>
     <use xlink:href="#mce5e0d3ca7" x="82.9361" y="43.343705" style="fill: #ff0000; stroke: #ff0000"/>
     <use xlink:href="#mce5e0d3ca7" x="272.602703" y="56.803709" style="fill: #ff0000; stroke: #ff0000"/>
     <use xlink:href="#mce5e0d3ca7" x="381.960024" y="89.214686" style="fill: #ff0000; stroke: #ff0000"/>
     <use xlink:href="#mce5e0d3ca7" x="77.809976" y="41.41403" style="fill: #ff0000; stroke: #ff0000"/>
     <use xlink:href="#mce5e0d3ca7" x="368.290359" y="57.844531" style="fill: #ff0000; stroke: #ff0000"/>
     <use xlink:href="#mce5e0d3ca7" x="72.683852" y="34.264471" style="fill: #ff0000; stroke: #ff0000"/>
     <use xlink:href="#mce5e0d3ca7" x="67.557727" y="33.499125" style="fill: #ff0000; stroke: #ff0000"/>
    </g>
   </g>
   <g id="patch_3">
    <path d="M 51.325 287.515125 
L 51.325 21.403125 
" style="fill: none; stroke: #000000; stroke-width: 0.8; stroke-linejoin: miter; stroke-linecap: square"/>
   </g>
   <g id="patch_4">
    <path d="M 408.445 287.515125 
L 408.445 21.403125 
" style="fill: none; stroke: #000000; stroke-width: 0.8; stroke-linejoin: miter; stroke-linecap: square"/>
   </g>
   <g id="patch_5">
    <path d="M 51.325 287.515125 
L 408.445 287.515125 
" style="fill: none; stroke: #000000; stroke-width: 0.8; stroke-linejoin: miter; stroke-linecap: square"/>
   </g>
   <g id="patch_6">
    <path d="M 51.325 21.403125 
L 408.445 21.403125 
" style="fill: none; stroke: #000000; stroke-width: 0.8; stroke-linejoin: miter; stroke-linecap: square"/>
   </g>
   <g id="text_16">
    <!-- Pareto Front Plot -->
    <g transform="translate(178.885 15.403125)scale(0.12 -0.12)">
     <defs>
      <path id="SimHei-50" d="M 2975 3075 
Q 2975 2475 2625 2125 
Q 2275 1775 1650 1775 
L 925 1775 
L 925 100 
L 350 100 
L 350 4375 
L 1650 4375 
Q 2275 4375 2625 4025 
Q 2975 3675 2975 3075 
z
M 2400 3075 
Q 2400 3550 2175 3725 
Q 1950 3900 1500 3900 
L 925 3900 
L 925 2250 
L 1500 2250 
Q 1950 2250 2175 2425 
Q 2400 2600 2400 3075 
z
" transform="scale(0.015625)"/>
      <path id="SimHei-61" d="M 2900 100 
L 2300 100 
Q 2250 150 2225 237 
Q 2200 325 2200 450 
Q 2025 250 1775 150 
Q 1525 50 1250 50 
Q 850 50 575 250 
Q 300 450 300 825 
Q 300 1200 550 1425 
Q 800 1650 1325 1725 
Q 1675 1775 1937 1850 
Q 2200 1925 2200 2050 
Q 2200 2200 2087 2350 
Q 1975 2500 1600 2500 
Q 1300 2500 1162 2387 
Q 1025 2275 975 2075 
L 425 2075 
Q 475 2475 787 2712 
Q 1100 2950 1600 2950 
Q 2150 2950 2425 2700 
Q 2700 2450 2700 2000 
L 2700 625 
Q 2700 475 2750 350 
Q 2800 225 2900 100 
z
M 2200 1025 
L 2200 1525 
Q 2050 1475 1912 1437 
Q 1775 1400 1450 1350 
Q 1075 1300 962 1175 
Q 850 1050 850 875 
Q 850 725 962 612 
Q 1075 500 1300 500 
Q 1525 500 1787 625 
Q 2050 750 2200 1025 
z
" transform="scale(0.015625)"/>
      <path id="SimHei-72" d="M 2525 2400 
Q 2050 2475 1725 2262 
Q 1400 2050 1175 1525 
L 1175 100 
L 675 100 
L 675 2900 
L 1175 2900 
L 1175 2175 
Q 1400 2575 1737 2762 
Q 2075 2950 2525 2950 
L 2525 2400 
z
" transform="scale(0.015625)"/>
      <path id="SimHei-65" d="M 2875 1050 
Q 2825 600 2475 325 
Q 2125 50 1650 50 
Q 1050 50 662 437 
Q 275 825 275 1500 
Q 275 2175 662 2562 
Q 1050 2950 1650 2950 
Q 2175 2950 2512 2612 
Q 2850 2275 2850 1500 
L 825 1500 
Q 825 950 1062 725 
Q 1300 500 1650 500 
Q 1925 500 2100 637 
Q 2275 775 2325 1050 
L 2875 1050 
z
M 2275 1900 
Q 2225 2250 2050 2387 
Q 1875 2525 1600 2525 
Q 1350 2525 1150 2387 
Q 950 2250 850 1900 
L 2275 1900 
z
" transform="scale(0.015625)"/>
      <path id="SimHei-74" d="M 2775 175 
Q 2650 125 2487 87 
Q 2325 50 2050 50 
Q 1600 50 1325 300 
Q 1050 550 1050 1000 
L 1050 2500 
L 200 2500 
L 200 2900 
L 1050 2900 
L 1050 3875 
L 1550 3875 
L 1550 2900 
L 2575 2900 
L 2575 2500 
L 1550 2500 
L 1550 975 
Q 1550 775 1650 637 
Q 1750 500 2025 500 
Q 2300 500 2475 550 
Q 2650 600 2775 675 
L 2775 175 
z
" transform="scale(0.015625)"/>
      <path id="SimHei-6f" d="M 2950 1500 
Q 2950 850 2550 450 
Q 2150 50 1600 50 
Q 1050 50 650 450 
Q 250 850 250 1500 
Q 250 2150 650 2550 
Q 1050 2950 1600 2950 
Q 2150 2950 2550 2550 
Q 2950 2150 2950 1500 
z
M 2400 1500 
Q 2400 2000 2150 2250 
Q 1900 2500 1600 2500 
Q 1300 2500 1050 2250 
Q 800 2000 800 1500 
Q 800 1000 1050 750 
Q 1300 500 1600 500 
Q 1900 500 2150 750 
Q 2400 1000 2400 1500 
z
" transform="scale(0.015625)"/>
      <path id="SimHei-20" transform="scale(0.015625)"/>
      <path id="SimHei-6e" d="M 2825 100 
L 2325 100 
L 2325 1900 
Q 2325 2200 2175 2375 
Q 2025 2550 1775 2550 
Q 1450 2550 1162 2212 
Q 875 1875 875 1375 
L 875 100 
L 375 100 
L 375 2900 
L 875 2900 
L 875 2375 
Q 1075 2650 1312 2800 
Q 1550 2950 1925 2950 
Q 2375 2950 2600 2700 
Q 2825 2450 2825 2075 
L 2825 100 
z
" transform="scale(0.015625)"/>
      <path id="SimHei-6c" d="M 1850 100 
L 1350 100 
L 1350 4375 
L 1850 4375 
L 1850 100 
z
" transform="scale(0.015625)"/>
     </defs>
     <use xlink:href="#SimHei-50"/>
     <use xlink:href="#SimHei-61" x="50"/>
     <use xlink:href="#SimHei-72" x="100"/>
     <use xlink:href="#SimHei-65" x="150"/>
     <use xlink:href="#SimHei-74" x="200"/>
     <use xlink:href="#SimHei-6f" x="250"/>
     <use xlink:href="#SimHei-20" x="300"/>
     <use xlink:href="#SimHei-46" x="350"/>
     <use xlink:href="#SimHei-72" x="400"/>
     <use xlink:href="#SimHei-6f" x="450"/>
     <use xlink:href="#SimHei-6e" x="500"/>
     <use xlink:href="#SimHei-74" x="550"/>
     <use xlink:href="#SimHei-20" x="600"/>
     <use xlink:href="#SimHei-50" x="650"/>
     <use xlink:href="#SimHei-6c" x="700"/>
     <use xlink:href="#SimHei-6f" x="750"/>
     <use xlink:href="#SimHei-74" x="800"/>
    </g>
   </g>
   <g id="legend_1">
    <g id="patch_7">
     <path d="M 334.445 42.692187 
L 401.445 42.692187 
Q 403.445 42.692187 403.445 40.692187 
L 403.445 28.403125 
Q 403.445 26.403125 401.445 26.403125 
L 334.445 26.403125 
Q 332.445 26.403125 332.445 28.403125 
L 332.445 40.692187 
Q 332.445 42.692187 334.445 42.692187 
z
" style="fill: #ffffff; opacity: 0.8; stroke: #cccccc; stroke-linejoin: miter"/>
    </g>
    <g id="line2d_28">
     <g>
      <use xlink:href="#mce5e0d3ca7" x="346.445" y="33.903125" style="fill: #ff0000; stroke: #ff0000"/>
     </g>
    </g>
    <g id="text_17">
     <!-- MOEA PF -->
     <g transform="translate(364.445 37.403125)scale(0.1 -0.1)">
      <defs>
       <path id="SimHei-4d" d="M 2950 100 
L 2450 100 
L 2450 3150 
L 2400 3150 
L 1800 100 
L 1400 100 
L 800 3150 
L 750 3150 
L 750 100 
L 250 100 
L 250 4375 
L 1025 4375 
L 1575 1550 
L 1625 1550 
L 2175 4375 
L 2950 4375 
L 2950 100 
z
" transform="scale(0.015625)"/>
       <path id="SimHei-4f" d="M 2975 2250 
Q 2975 1075 2612 562 
Q 2250 50 1600 50 
Q 950 50 575 562 
Q 200 1075 200 2250 
Q 200 3425 575 3925 
Q 950 4425 1600 4425 
Q 2250 4425 2612 3925 
Q 2975 3425 2975 2250 
z
M 2375 2250 
Q 2375 3300 2150 3625 
Q 1925 3950 1600 3950 
Q 1275 3950 1037 3625 
Q 800 3300 800 2250 
Q 800 1200 1037 862 
Q 1275 525 1600 525 
Q 1925 525 2150 862 
Q 2375 1200 2375 2250 
z
" transform="scale(0.015625)"/>
       <path id="SimHei-45" d="M 2925 100 
L 375 100 
L 375 4375 
L 2800 4375 
L 2800 3900 
L 950 3900 
L 950 2575 
L 2650 2575 
L 2650 2100 
L 950 2100 
L 950 575 
L 2925 575 
L 2925 100 
z
" transform="scale(0.015625)"/>
       <path id="SimHei-41" d="M 3100 100 
L 2500 100 
L 2150 1425 
L 1050 1425 
L 700 100 
L 100 100 
L 1350 4425 
L 1850 4425 
L 3100 100 
z
M 2025 1900 
L 1625 3425 
L 1575 3425 
L 1175 1900 
L 2025 1900 
z
" transform="scale(0.015625)"/>
      </defs>
      <use xlink:href="#SimHei-4d"/>
      <use xlink:href="#SimHei-4f" x="50"/>
      <use xlink:href="#SimHei-45" x="100"/>
      <use xlink:href="#SimHei-41" x="150"/>
      <use xlink:href="#SimHei-20" x="200"/>
      <use xlink:href="#SimHei-50" x="250"/>
      <use xlink:href="#SimHei-46" x="300"/>
     </g>
    </g>
   </g>
  </g>
 </g>
 <defs>
  <clipPath id="p962f445661">
   <rect x="51.325" y="21.403125" width="357.12" height="266.112"/>
  </clipPath>
 </defs>
</svg>
